<svg width="24" height="20" viewBox="0 0 24 20" fill="none" xmlns="http://www.w3.org/2000/svg">
<g id="Group">
<path id="Vector" d="M21.0002 1.9751H18.9752V1.1501C18.9752 0.700098 18.6002 0.287598 18.1127 0.287598C17.6252 0.287598 17.2502 0.662598 17.2502 1.1501V1.9376H6.71269V1.1501C6.71269 0.700098 6.3377 0.287598 5.85019 0.287598C5.3627 0.287598 4.9877 0.662598 4.9877 1.1501V1.9376H3.0002C1.7252 1.9376 0.637695 2.9876 0.637695 4.3001V17.3501C0.637695 18.6251 1.6877 19.7126 3.0002 19.7126H21.0002C22.2752 19.7126 23.3627 18.6626 23.3627 17.3501V4.3001C23.3627 3.0251 22.2752 1.9751 21.0002 1.9751ZM3.0002 3.6626H5.0252V4.4126C5.0252 4.8626 5.4002 5.2751 5.88769 5.2751C6.3752 5.2751 6.75019 4.9001 6.75019 4.4126V3.6626H17.3627V4.4126C17.3627 4.8626 17.7377 5.2751 18.2252 5.2751C18.7127 5.2751 19.0877 4.9001 19.0877 4.4126V3.6626H21.0002C21.3752 3.6626 21.6752 3.9626 21.6752 4.3376V6.8126H2.3627V4.3376C2.3627 3.9251 2.6252 3.6626 3.0002 3.6626ZM21.0002 17.9876H3.0002C2.6252 17.9876 2.3252 17.6876 2.3252 17.3126V8.4626H21.6377V17.3501C21.6752 17.7251 21.3752 17.9876 21.0002 17.9876Z" fill="currentColor"/>
<path id="Vector_2" d="M10.8006 9.5127H9.97559C9.75059 9.5127 9.60059 9.6627 9.60059 9.8877V10.7127C9.60059 10.9377 9.75059 11.0877 9.97559 11.0877H10.8006C11.0256 11.0877 11.1756 10.9377 11.1756 10.7127V9.8877C11.1756 9.6627 10.9881 9.5127 10.8006 9.5127Z" fill="currentColor"/>
<path id="Vector_3" d="M14.2127 9.5127H13.3877C13.1627 9.5127 13.0127 9.6627 13.0127 9.8877V10.7127C13.0127 10.9377 13.1627 11.0877 13.3877 11.0877H14.2127C14.4377 11.0877 14.5877 10.9377 14.5877 10.7127V9.8877C14.5877 9.6627 14.4377 9.5127 14.2127 9.5127Z" fill="currentColor"/>
<path id="Vector_4" d="M17.6248 9.5127H16.7998C16.5748 9.5127 16.4248 9.6627 16.4248 9.8877V10.7127C16.4248 10.9377 16.5748 11.0877 16.7998 11.0877H17.6248C17.8498 11.0877 17.9998 10.9377 17.9998 10.7127V9.8877C17.9998 9.6627 17.8498 9.5127 17.6248 9.5127Z" fill="currentColor"/>
<path id="Vector_5" d="M7.2 12.4001H6.375C6.15 12.4001 6 12.5501 6 12.7751V13.6001C6 13.8251 6.15 13.9751 6.375 13.9751H7.2C7.425 13.9751 7.575 13.8251 7.575 13.6001V12.7751C7.575 12.5501 7.3875 12.4001 7.2 12.4001Z" fill="currentColor"/>
<path id="Vector_6" d="M10.8006 12.4001H9.97559C9.75059 12.4001 9.60059 12.5501 9.60059 12.7751V13.6001C9.60059 13.8251 9.75059 13.9751 9.97559 13.9751H10.8006C11.0256 13.9751 11.1756 13.8251 11.1756 13.6001V12.7751C11.1756 12.5501 10.9881 12.4001 10.8006 12.4001Z" fill="currentColor"/>
<path id="Vector_7" d="M14.2127 12.4001H13.3877C13.1627 12.4001 13.0127 12.5501 13.0127 12.7751V13.6001C13.0127 13.8251 13.1627 13.9751 13.3877 13.9751H14.2127C14.4377 13.9751 14.5877 13.8251 14.5877 13.6001V12.7751C14.5877 12.5501 14.4377 12.4001 14.2127 12.4001Z" fill="currentColor"/>
<path id="Vector_8" d="M17.6248 12.4001H16.7998C16.5748 12.4001 16.4248 12.5501 16.4248 12.7751V13.6001C16.4248 13.8251 16.5748 13.9751 16.7998 13.9751H17.6248C17.8498 13.9751 17.9998 13.8251 17.9998 13.6001V12.7751C17.9998 12.5501 17.8498 12.4001 17.6248 12.4001Z" fill="currentColor"/>
<path id="Vector_9" d="M7.2 15.2876H6.375C6.15 15.2876 6 15.4376 6 15.6626V16.4876C6 16.7126 6.15 16.8626 6.375 16.8626H7.2C7.425 16.8626 7.575 16.7126 7.575 16.4876V15.6626C7.575 15.4376 7.3875 15.2876 7.2 15.2876Z" fill="currentColor"/>
<path id="Vector_10" d="M10.8006 15.2876H9.97559C9.75059 15.2876 9.60059 15.4376 9.60059 15.6626V16.4876C9.60059 16.7126 9.75059 16.8626 9.97559 16.8626H10.8006C11.0256 16.8626 11.1756 16.7126 11.1756 16.4876V15.6626C11.1756 15.4376 10.9881 15.2876 10.8006 15.2876Z" fill="currentColor"/>
<path id="Vector_11" d="M14.2127 15.2876H13.3877C13.1627 15.2876 13.0127 15.4376 13.0127 15.6626V16.4876C13.0127 16.7126 13.1627 16.8626 13.3877 16.8626H14.2127C14.4377 16.8626 14.5877 16.7126 14.5877 16.4876V15.6626C14.5877 15.4376 14.4377 15.2876 14.2127 15.2876Z" fill="currentColor"/>
</g>
</svg>
