<svg width="21" height="20" viewBox="0 0 21 20" fill="none"
    xmlns="http://www.w3.org/2000/svg">
    <g id="Button &#226;&#134;&#146; SVG">
        <path id="Vector" d="M6.64343 5.21997C6.50126 5.08749 6.31321 5.01537 6.11891 5.01879C5.92461 5.02222 5.73923 5.10093 5.60181 5.23835C5.4644 5.37576 5.38569 5.56114 5.38226 5.75545C5.37883 5.94975 5.45095 6.13779 5.58343 6.27997L9.30343 9.99997L5.58343 13.72C5.50975 13.7886 5.45065 13.8714 5.40965 13.9634C5.36866 14.0554 5.34662 14.1547 5.34484 14.2554C5.34307 14.3561 5.36159 14.4562 5.39931 14.5496C5.43703 14.643 5.49318 14.7278 5.5644 14.799C5.63562 14.8702 5.72045 14.9264 5.81384 14.9641C5.90723 15.0018 6.00725 15.0203 6.10796 15.0186C6.20866 15.0168 6.30797 14.9947 6.39997 14.9537C6.49197 14.9128 6.57477 14.8537 6.64343 14.78L10.3634 11.06L14.0834 14.78C14.1521 14.8537 14.2349 14.9128 14.3269 14.9537C14.4189 14.9947 14.5182 15.0168 14.6189 15.0186C14.7196 15.0203 14.8196 15.0018 14.913 14.9641C15.0064 14.9264 15.0913 14.8702 15.1625 14.799C15.2337 14.7278 15.2898 14.643 15.3276 14.5496C15.3653 14.4562 15.3838 14.3561 15.382 14.2554C15.3802 14.1547 15.3582 14.0554 15.3172 13.9634C15.2762 13.8714 15.2171 13.7886 15.1434 13.72L11.4234 9.99997L15.1434 6.27997C15.2759 6.13779 15.348 5.94975 15.3446 5.75545C15.3412 5.56114 15.2625 5.37576 15.1251 5.23835C14.9876 5.10093 14.8023 5.02222 14.608 5.01879C14.4137 5.01537 14.2256 5.08749 14.0834 5.21997L10.3634 8.93997L6.64343 5.21997Z" fill="currentColor"/>
    </g>
</svg>
