<svg width="17" height="17" viewBox="0 0 17 17" fill="none"
    xmlns="http://www.w3.org/2000/svg">
    <g id="EyeInvisible">
        <path id="Vector" d="M16.6626 8.00867C15.9957 6.60351 15.2019 5.45753 14.2815 4.57072L13.3161 5.53608C14.1033 6.28836 14.789 7.27251 15.3819 8.49818C13.8034 11.7654 11.5626 13.3174 8.50035 13.3174C7.58116 13.3174 6.73452 13.1758 5.96041 12.8928L4.91442 13.9387C5.98956 14.4352 7.18488 14.6834 8.50035 14.6834C12.147 14.6834 14.8678 12.7842 16.6626 8.98579C16.7348 8.83302 16.7722 8.66617 16.7722 8.49723C16.7722 8.32828 16.7348 8.16143 16.6626 8.00867ZM15.4565 1.92509L14.6477 1.11532C14.6336 1.1012 14.6168 1.09001 14.5984 1.08237C14.58 1.07473 14.5602 1.0708 14.5403 1.0708C14.5203 1.0708 14.5006 1.07473 14.4822 1.08237C14.4637 1.09001 14.447 1.1012 14.4329 1.11532L12.3578 3.18947C11.2137 2.60509 9.9279 2.31291 8.50035 2.31291C4.8537 2.31291 2.13294 4.21213 0.338077 8.01056C0.265932 8.16333 0.228516 8.33018 0.228516 8.49912C0.228516 8.66807 0.265932 8.83492 0.338077 8.98768C1.05514 10.498 1.91842 11.7085 2.92792 12.6193L0.920175 14.6265C0.891731 14.655 0.875753 14.6936 0.875753 14.7338C0.875753 14.7741 0.891731 14.8126 0.920175 14.8411L1.73014 15.6511C1.7586 15.6795 1.7972 15.6955 1.83744 15.6955C1.87767 15.6955 1.91627 15.6795 1.94473 15.6511L15.4565 2.13987C15.4706 2.12577 15.4818 2.10903 15.4895 2.09061C15.4971 2.07218 15.501 2.05243 15.501 2.03248C15.501 2.01254 15.4971 1.99278 15.4895 1.97436C15.4818 1.95593 15.4706 1.93919 15.4565 1.92509ZM1.61877 8.49818C3.19924 5.23099 5.43997 3.67898 8.50035 3.67898C9.53515 3.67898 10.476 3.85657 11.3296 4.21763L9.99582 5.55145C9.36414 5.21441 8.64086 5.08933 7.93268 5.19465C7.2245 5.29996 6.56893 5.63011 6.06266 6.13637C5.55639 6.64264 5.22625 7.29822 5.12093 8.0064C5.01561 8.71458 5.1407 9.43786 5.47773 10.0695L3.89499 11.6523C3.01899 10.8791 2.26386 9.83161 1.61877 8.49818ZM6.29946 8.49818C6.29979 8.16361 6.37904 7.83384 6.53076 7.53566C6.68249 7.23747 6.90241 6.97929 7.17267 6.78207C7.44292 6.58485 7.75589 6.45416 8.08614 6.40062C8.4164 6.34707 8.75462 6.37219 9.07335 6.47392L6.40021 9.14706C6.33321 8.93729 6.29922 8.71838 6.29946 8.49818Z" fill="currentColor" fill-opacity="0.85"/>
        <path id="Vector_2" d="M8.42418 10.6263C8.35853 10.6263 8.29383 10.6233 8.2297 10.6174L7.22754 11.6196C7.8303 11.8504 8.48702 11.9017 9.11832 11.7673C9.74961 11.6328 10.3284 11.3184 10.7848 10.862C11.2412 10.4056 11.5557 9.82676 11.6901 9.19546C11.8246 8.56417 11.7733 7.90745 11.5424 7.30469L10.5403 8.30685C10.5461 8.37098 10.5492 8.43568 10.5492 8.50133C10.5493 8.78043 10.4945 9.05682 10.3877 9.31471C10.281 9.57259 10.1245 9.80691 9.92712 10.0043C9.72976 10.2016 9.49544 10.3581 9.23756 10.4649C8.97967 10.5716 8.70328 10.6265 8.42418 10.6263Z" fill="currentColor" fill-opacity="0.85"/>
    </g>
</svg>
