<svg width="17" height="17" viewBox="0 0 17 17" fill="none"
    xmlns="http://www.w3.org/2000/svg">
    <g id="Eye">
        <path id="Vector" d="M16.6626 8.01168C14.864 4.22273 12.1451 2.31592 8.50035 2.31592C4.8537 2.31592 2.13674 4.22273 0.338077 8.01357C0.265932 8.16634 0.228516 8.33319 0.228516 8.50213C0.228516 8.67108 0.265932 8.83793 0.338077 8.9907C2.13674 12.7796 4.8556 14.6865 8.50035 14.6865C12.147 14.6865 14.864 12.7796 16.6626 8.9888C16.8087 8.68143 16.8087 8.32474 16.6626 8.01168ZM8.50035 13.3204C5.43997 13.3204 3.19924 11.7684 1.61877 8.50119C3.19924 5.234 5.43997 3.68199 8.50035 3.68199C11.5607 3.68199 13.8015 5.234 15.3819 8.50119C13.8034 11.7684 11.5626 13.3204 8.50035 13.3204ZM8.42446 5.1619C6.58026 5.1619 5.08518 6.65699 5.08518 8.50119C5.08518 10.3454 6.58026 11.8405 8.42446 11.8405C10.2687 11.8405 11.7637 10.3454 11.7637 8.50119C11.7637 6.65699 10.2687 5.1619 8.42446 5.1619ZM8.42446 10.6262C7.25002 10.6262 6.29946 9.67563 6.29946 8.50119C6.29946 7.32674 7.25002 6.37619 8.42446 6.37619C9.5989 6.37619 10.5495 7.32674 10.5495 8.50119C10.5495 9.67563 9.5989 10.6262 8.42446 10.6262Z" fill="currentColor" fill-opacity="0.85"/>
    </g>
</svg>
