<svg width="24" height="24" viewBox="0 0 24 24" fill="none"
xmlns="http://www.w3.org/2000/svg">
  <path d="M3 9.75L12 2.25L21 9.75V19.5C21 19.8978 20.842 20.2794 20.5607 20.5607C20.2794 20.842 19.8978 21 19.5 21H15.75C15.3522 21 14.9706 20.842 14.6893 20.5607C14.408 20.2794 14.25 19.8978 14.25 19.5V15.75C14.25 15.5511 14.171 15.3603 14.0303 15.2197C13.8897 15.079 13.6989 15 13.5 15H10.5C10.3011 15 10.1103 15.079 9.96967 15.2197C9.82902 15.3603 9.75 15.5511 9.75 15.75V19.5C9.75 19.8978 9.59196 20.2794 9.31066 20.5607C9.02936 20.842 8.64782 21 8.25 21H4.5C4.10218 21 3.72064 20.842 3.43934 20.5607C3.15804 20.2794 3 19.8978 3 19.5V9.75Z" 
  stroke="currentColor" stroke-width="1.5" stroke-linecap="round" stroke-linejoin="round"/>
</svg>
