<svg width="15" height="15" viewBox="0 0 15 15" fill="none"
    xmlns="http://www.w3.org/2000/svg">
    <path fill-rule="evenodd" clip-rule="evenodd" d="M0 7.32121C0 3.27273 3.29697 0 7.34545 0C11.3939 0 14.6667 3.27273 14.6667 7.32121C14.6667 11.3697 11.3939 14.6667 7.34545 14.6667C3.29697 14.6667 0 11.3697 0 7.32121ZM1.09091 7.32121C1.09091 10.7636 3.90303 13.5758 7.34545 13.5758C10.7879 13.5758 13.5758 10.7636 13.5758 7.32121C13.5758 3.87879 10.7879 1.06667 7.34545 1.06667C3.90303 1.06667 1.09091 3.87879 1.09091 7.32121ZM7.34546 4.19394H7.32121C7.0303 4.19394 6.76364 4.43636 6.76364 4.75152C6.76364 5.06667 7.00606 5.30909 7.32121 5.30909H7.34546C7.63636 5.30909 7.90303 5.06667 7.90303 4.75152C7.90303 4.43636 7.66061 4.19394 7.34546 4.19394ZM7.34546 6.10909C7.05455 6.10909 6.78788 6.35151 6.78788 6.66667V10.4C6.78788 10.6909 7.0303 10.9576 7.34546 10.9576C7.63636 10.9576 7.90303 10.7152 7.90303 10.4V6.64242C7.90303 6.35151 7.66061 6.10909 7.34546 6.10909Z" fill="currentColor"/>
</svg>
