<svg width="14" height="14" viewBox="0 0 14 14" fill="none" xmlns="http://www.w3.org/2000/svg">
<path d="M7.12882 1.16666H6.87216C6.56274 1.16666 6.26599 1.28957 6.0472 1.50837C5.82841 1.72716 5.70549 2.0239 5.70549 2.33332V2.43832C5.70528 2.64291 5.65127 2.84385 5.54889 3.02098C5.4465 3.19811 5.29934 3.34519 5.12216 3.44749L4.87132 3.59332C4.69397 3.69572 4.49278 3.74963 4.28799 3.74963C4.0832 3.74963 3.88201 3.69572 3.70466 3.59332L3.61716 3.54666C3.34944 3.39223 3.03139 3.35033 2.73282 3.43017C2.43425 3.51001 2.17956 3.70505 2.02466 3.97249L1.89632 4.19416C1.74189 4.46187 1.7 4.77992 1.77984 5.07849C1.85967 5.37706 2.05472 5.63175 2.32216 5.78666L2.40966 5.84499C2.58598 5.94679 2.7326 6.09296 2.83494 6.26897C2.93727 6.44499 2.99176 6.64472 2.99299 6.84832V7.14582C2.99381 7.3514 2.94029 7.55355 2.83785 7.73179C2.73541 7.91003 2.58769 8.05803 2.40966 8.16082L2.32216 8.21332C2.05472 8.36823 1.85967 8.62292 1.77984 8.92149C1.7 9.22006 1.74189 9.53811 1.89632 9.80582L2.02466 10.0275C2.17956 10.2949 2.43425 10.49 2.73282 10.5698C3.03139 10.6496 3.34944 10.6078 3.61716 10.4533L3.70466 10.4067C3.88201 10.3043 4.0832 10.2504 4.28799 10.2504C4.49278 10.2504 4.69397 10.3043 4.87132 10.4067L5.12216 10.5525C5.29934 10.6548 5.4465 10.8019 5.54889 10.979C5.65127 11.1561 5.70528 11.3571 5.70549 11.5617V11.6667C5.70549 11.9761 5.82841 12.2728 6.0472 12.4916C6.26599 12.7104 6.56274 12.8333 6.87216 12.8333H7.12882C7.43824 12.8333 7.73499 12.7104 7.95378 12.4916C8.17257 12.2728 8.29549 11.9761 8.29549 11.6667V11.5617C8.2957 11.3571 8.34971 11.1561 8.45209 10.979C8.55448 10.8019 8.70164 10.6548 8.87882 10.5525L9.12966 10.4067C9.30701 10.3043 9.5082 10.2504 9.71299 10.2504C9.91778 10.2504 10.119 10.3043 10.2963 10.4067L10.3838 10.4533C10.6515 10.6078 10.9696 10.6496 11.2682 10.5698C11.5667 10.49 11.8214 10.2949 11.9763 10.0275L12.1047 9.79999C12.2591 9.53228 12.301 9.21423 12.2211 8.91566C12.1413 8.61709 11.9463 8.36239 11.6788 8.20749L11.5913 8.16082C11.4133 8.05803 11.2656 7.91003 11.1631 7.73179C11.0607 7.55355 11.0072 7.3514 11.008 7.14582V6.85416C11.0072 6.64858 11.0607 6.44643 11.1631 6.26819C11.2656 6.08995 11.4133 5.94194 11.5913 5.83916L11.6788 5.78666C11.9463 5.63175 12.1413 5.37706 12.2211 5.07849C12.301 4.77992 12.2591 4.46187 12.1047 4.19416L11.9763 3.97249C11.8214 3.70505 11.5667 3.51001 11.2682 3.43017C10.9696 3.35033 10.6515 3.39223 10.3838 3.54666L10.2963 3.59332C10.119 3.69572 9.91778 3.74963 9.71299 3.74963C9.5082 3.74963 9.30701 3.69572 9.12966 3.59332L8.87882 3.44749C8.70164 3.34519 8.55448 3.19811 8.45209 3.02098C8.34971 2.84385 8.2957 2.64291 8.29549 2.43832V2.33332C8.29549 2.0239 8.17257 1.72716 7.95378 1.50837C7.73499 1.28957 7.43824 1.16666 7.12882 1.16666Z" stroke="currentColor" stroke-linecap="round" stroke-linejoin="round"/>
<path d="M7.00049 8.74999C7.96699 8.74999 8.75049 7.96649 8.75049 6.99999C8.75049 6.03349 7.96699 5.24999 7.00049 5.24999C6.03399 5.24999 5.25049 6.03349 5.25049 6.99999C5.25049 7.96649 6.03399 8.74999 7.00049 8.74999Z" stroke="currentColor" stroke-linecap="round" stroke-linejoin="round"/>
</svg>
